<svg width="376" height="169" viewBox="0 0 376 169" fill="none" xmlns="http://www.w3.org/2000/svg">
<path d="M7.35926 102V28.4073H24.4958L54.9842 78.4504H45.9428L75.5902 28.4073H92.7267L92.937 102H73.8029L73.5927 57.529H76.8518L54.6688 94.7459H45.4172L22.6035 57.529H26.5985V102H7.35926Z" fill="#075FEC"/>
<path d="M219.534 102V28.4073H236.67L277.251 77.399H269.156V28.4073H289.552V102H272.415L231.834 53.0083H239.929V102H219.534Z" fill="#2FA552"/>
<path d="M338.929 103.472C333.111 103.472 327.715 102.561 322.738 100.738C317.762 98.846 313.452 96.1827 309.807 92.7484C306.232 89.314 303.429 85.284 301.396 80.6581C299.364 75.9622 298.348 70.8107 298.348 65.2037C298.348 59.5966 299.364 54.4802 301.396 49.8543C303.429 45.1584 306.268 41.0933 309.912 37.659C313.557 34.2247 317.867 31.5964 322.843 29.7741C327.89 27.8817 333.392 26.9355 339.349 26.9355C346.288 26.9355 352.491 28.0919 357.958 30.4049C363.425 32.7178 367.945 36.047 371.52 40.3924L358.273 52.3775C355.75 49.6441 353.016 47.6115 350.073 46.2798C347.199 44.8781 343.975 44.1772 340.401 44.1772C337.247 44.1772 334.373 44.6678 331.78 45.6491C329.186 46.6303 326.979 48.0671 325.156 49.9595C323.334 51.7818 321.897 53.9896 320.846 56.5828C319.865 59.106 319.374 61.9796 319.374 65.2037C319.374 68.2876 319.865 71.1261 320.846 73.7194C321.897 76.3127 323.334 78.5555 325.156 80.4479C326.979 82.2702 329.151 83.707 331.675 84.7583C334.268 85.7395 337.106 86.2301 340.19 86.2301C343.274 86.2301 346.288 85.7395 349.232 84.7583C352.175 83.707 355.154 81.9548 358.168 79.5017L369.838 94.1151C365.632 97.1289 360.761 99.4418 355.224 101.054C349.687 102.666 344.255 103.472 338.929 103.472ZM351.439 91.3816V63.6267H369.838V94.1151L351.439 91.3816Z" fill="#EB4444"/>
<path d="M15.6347 157V127.313H3.96104V121.778H33.8496V127.313H22.176V157H15.6347ZM50.2972 157.352C47.3117 157.352 44.6951 156.765 42.4476 155.591C40.2337 154.383 38.5061 152.74 37.2649 150.66C36.0573 148.58 35.4535 146.215 35.4535 143.565C35.4535 140.882 36.0405 138.517 37.2146 136.47C38.4222 134.391 40.0659 132.764 42.1457 131.59C44.2591 130.416 46.6575 129.829 49.3411 129.829C51.9576 129.829 54.289 130.399 56.3353 131.539C58.3815 132.68 59.9917 134.29 61.1657 136.37C62.3398 138.45 62.9269 140.898 62.9269 143.716C62.9269 143.985 62.9101 144.286 62.8765 144.622C62.8765 144.957 62.8598 145.276 62.8262 145.578H40.4349V141.402H59.5053L57.0397 142.71C57.0733 141.167 56.7546 139.808 56.0837 138.634C55.4128 137.46 54.4903 136.538 53.3162 135.867C52.1757 135.196 50.8507 134.86 49.3411 134.86C47.7981 134.86 46.4395 135.196 45.2654 135.867C44.1249 136.538 43.2192 137.477 42.5483 138.684C41.9109 139.859 41.5922 141.251 41.5922 142.861V143.867C41.5922 145.477 41.9612 146.903 42.6992 148.144C43.4372 149.385 44.4771 150.341 45.8189 151.012C47.1607 151.683 48.7038 152.019 50.4481 152.019C51.9576 152.019 53.3162 151.784 54.5238 151.314C55.7315 150.844 56.8049 150.107 57.7442 149.1L61.1154 152.975C59.9078 154.383 58.3815 155.474 56.5365 156.245C54.7251 156.983 52.6453 157.352 50.2972 157.352ZM83.5606 157.352C80.7428 157.352 78.2269 156.765 76.0129 155.591C73.8325 154.383 72.1217 152.74 70.8806 150.66C69.6394 148.58 69.0188 146.215 69.0188 143.565C69.0188 140.882 69.6394 138.517 70.8806 136.47C72.1217 134.391 73.8325 132.764 76.0129 131.59C78.2269 130.416 80.7428 129.829 83.5606 129.829C86.1771 129.829 88.4749 130.365 90.4541 131.439C92.4668 132.479 93.9931 134.022 95.033 136.068L90.2025 138.886C89.3974 137.611 88.4078 136.672 87.2337 136.068C86.0932 135.464 84.852 135.162 83.5102 135.162C81.9672 135.162 80.5751 135.498 79.3339 136.169C78.0927 136.839 77.1199 137.812 76.4155 139.087C75.711 140.328 75.3588 141.821 75.3588 143.565C75.3588 145.31 75.711 146.819 76.4155 148.094C77.1199 149.335 78.0927 150.291 79.3339 150.962C80.5751 151.633 81.9672 151.968 83.5102 151.968C84.852 151.968 86.0932 151.666 87.2337 151.063C88.4078 150.459 89.3974 149.519 90.2025 148.245L95.033 151.063C93.9931 153.075 92.4668 154.635 90.4541 155.742C88.4749 156.816 86.1771 157.352 83.5606 157.352ZM117.735 129.829C119.882 129.829 121.794 130.248 123.471 131.086C125.182 131.925 126.524 133.217 127.496 134.961C128.469 136.672 128.956 138.886 128.956 141.603V157H122.666V142.408C122.666 140.026 122.096 138.248 120.955 137.074C119.848 135.9 118.288 135.313 116.276 135.313C114.8 135.313 113.491 135.615 112.351 136.219C111.21 136.823 110.321 137.728 109.684 138.936C109.08 140.11 108.778 141.603 108.778 143.414V157H102.489V119.664H108.778V137.376L107.42 135.162C108.359 133.451 109.718 132.143 111.495 131.237C113.307 130.298 115.387 129.829 117.735 129.829ZM154.445 129.829C156.592 129.829 158.504 130.248 160.181 131.086C161.892 131.925 163.234 133.217 164.207 134.961C165.179 136.672 165.666 138.886 165.666 141.603V157H159.376V142.408C159.376 140.026 158.806 138.248 157.665 137.074C156.558 135.9 154.998 135.313 152.986 135.313C151.51 135.313 150.202 135.615 149.061 136.219C147.92 136.823 147.032 137.728 146.394 138.936C145.79 140.11 145.488 141.603 145.488 143.414V157H139.199V130.13H145.187V137.376L144.13 135.162C145.069 133.451 146.428 132.143 148.206 131.237C150.017 130.298 152.097 129.829 154.445 129.829ZM188.034 157.352C185.284 157.352 182.835 156.765 180.688 155.591C178.541 154.383 176.847 152.74 175.606 150.66C174.365 148.58 173.744 146.215 173.744 143.565C173.744 140.882 174.365 138.517 175.606 136.47C176.847 134.391 178.541 132.764 180.688 131.59C182.835 130.416 185.284 129.829 188.034 129.829C190.818 129.829 193.284 130.416 195.431 131.59C197.611 132.764 199.305 134.374 200.513 136.42C201.754 138.466 202.375 140.848 202.375 143.565C202.375 146.215 201.754 148.58 200.513 150.66C199.305 152.74 197.611 154.383 195.431 155.591C193.284 156.765 190.818 157.352 188.034 157.352ZM188.034 151.968C189.577 151.968 190.953 151.633 192.16 150.962C193.368 150.291 194.307 149.318 194.978 148.043C195.682 146.769 196.035 145.276 196.035 143.565C196.035 141.821 195.682 140.328 194.978 139.087C194.307 137.812 193.368 136.839 192.16 136.169C190.953 135.498 189.594 135.162 188.085 135.162C186.541 135.162 185.166 135.498 183.959 136.169C182.784 136.839 181.845 137.812 181.141 139.087C180.436 140.328 180.084 141.821 180.084 143.565C180.084 145.276 180.436 146.769 181.141 148.043C181.845 149.318 182.784 150.291 183.959 150.962C185.166 151.633 186.525 151.968 188.034 151.968ZM210.654 157V119.664H216.943V157H210.654ZM239.539 157.352C236.788 157.352 234.339 156.765 232.193 155.591C230.046 154.383 228.352 152.74 227.11 150.66C225.869 148.58 225.249 146.215 225.249 143.565C225.249 140.882 225.869 138.517 227.11 136.47C228.352 134.391 230.046 132.764 232.193 131.59C234.339 130.416 236.788 129.829 239.539 129.829C242.323 129.829 244.789 130.416 246.936 131.59C249.116 132.764 250.81 134.374 252.018 136.42C253.259 138.466 253.879 140.848 253.879 143.565C253.879 146.215 253.259 148.58 252.018 150.66C250.81 152.74 249.116 154.383 246.936 155.591C244.789 156.765 242.323 157.352 239.539 157.352ZM239.539 151.968C241.082 151.968 242.457 151.633 243.665 150.962C244.873 150.291 245.812 149.318 246.483 148.043C247.187 146.769 247.539 145.276 247.539 143.565C247.539 141.821 247.187 140.328 246.483 139.087C245.812 137.812 244.873 136.839 243.665 136.169C242.457 135.498 241.099 135.162 239.589 135.162C238.046 135.162 236.671 135.498 235.463 136.169C234.289 136.839 233.35 137.812 232.645 139.087C231.941 140.328 231.589 141.821 231.589 143.565C231.589 145.276 231.941 146.769 232.645 148.043C233.35 149.318 234.289 150.291 235.463 150.962C236.671 151.633 238.029 151.968 239.539 151.968ZM274.335 167.114C271.853 167.114 269.421 166.778 267.039 166.107C264.691 165.47 262.762 164.531 261.252 163.29L264.07 158.56C265.244 159.533 266.72 160.304 268.498 160.874C270.31 161.478 272.138 161.78 273.983 161.78C276.935 161.78 279.098 161.092 280.474 159.717C281.849 158.375 282.537 156.346 282.537 153.629V148.849L283.04 142.76L282.839 136.672V130.13H288.826V152.924C288.826 157.788 287.585 161.361 285.103 163.642C282.621 165.957 279.031 167.114 274.335 167.114ZM273.53 155.792C270.981 155.792 268.666 155.256 266.586 154.182C264.54 153.075 262.913 151.549 261.705 149.603C260.531 147.658 259.944 145.377 259.944 142.76C259.944 140.177 260.531 137.913 261.705 135.967C262.913 134.022 264.54 132.512 266.586 131.439C268.666 130.365 270.981 129.829 273.53 129.829C275.811 129.829 277.857 130.281 279.669 131.187C281.48 132.093 282.923 133.502 283.996 135.414C285.103 137.326 285.656 139.775 285.656 142.76C285.656 145.746 285.103 148.211 283.996 150.157C282.923 152.069 281.48 153.495 279.669 154.434C277.857 155.34 275.811 155.792 273.53 155.792ZM274.486 150.459C276.063 150.459 277.471 150.14 278.713 149.503C279.954 148.832 280.91 147.926 281.581 146.786C282.285 145.611 282.637 144.27 282.637 142.76C282.637 141.251 282.285 139.926 281.581 138.785C280.91 137.611 279.954 136.722 278.713 136.118C277.471 135.481 276.063 135.162 274.486 135.162C272.909 135.162 271.484 135.481 270.209 136.118C268.968 136.722 267.995 137.611 267.291 138.785C266.62 139.926 266.284 141.251 266.284 142.76C266.284 144.27 266.62 145.611 267.291 146.786C267.995 147.926 268.968 148.832 270.209 149.503C271.484 150.14 272.909 150.459 274.486 150.459ZM299.36 157V130.13H305.649V157H299.36ZM302.53 125.703C301.356 125.703 300.383 125.334 299.611 124.596C298.873 123.858 298.504 122.969 298.504 121.929C298.504 120.855 298.873 119.966 299.611 119.262C300.383 118.524 301.356 118.155 302.53 118.155C303.704 118.155 304.66 118.507 305.398 119.212C306.169 119.882 306.555 120.738 306.555 121.778C306.555 122.885 306.186 123.824 305.448 124.596C304.71 125.334 303.737 125.703 302.53 125.703ZM328.799 157.352C325.813 157.352 323.197 156.765 320.949 155.591C318.735 154.383 317.008 152.74 315.766 150.66C314.559 148.58 313.955 146.215 313.955 143.565C313.955 140.882 314.542 138.517 315.716 136.47C316.924 134.391 318.567 132.764 320.647 131.59C322.761 130.416 325.159 129.829 327.843 129.829C330.459 129.829 332.79 130.399 334.837 131.539C336.883 132.68 338.493 134.29 339.667 136.37C340.841 138.45 341.428 140.898 341.428 143.716C341.428 143.985 341.412 144.286 341.378 144.622C341.378 144.957 341.361 145.276 341.328 145.578H318.936V141.402H338.007L335.541 142.71C335.575 141.167 335.256 139.808 334.585 138.634C333.914 137.46 332.992 136.538 331.818 135.867C330.677 135.196 329.352 134.86 327.843 134.86C326.3 134.86 324.941 135.196 323.767 135.867C322.626 136.538 321.721 137.477 321.05 138.684C320.412 139.859 320.094 141.251 320.094 142.861V143.867C320.094 145.477 320.463 146.903 321.201 148.144C321.939 149.385 322.979 150.341 324.32 151.012C325.662 151.683 327.205 152.019 328.95 152.019C330.459 152.019 331.818 151.784 333.025 151.314C334.233 150.844 335.306 150.107 336.246 149.1L339.617 152.975C338.409 154.383 336.883 155.474 335.038 156.245C333.227 156.983 331.147 157.352 328.799 157.352ZM358.037 157.352C355.789 157.352 353.625 157.067 351.546 156.497C349.499 155.893 347.872 155.172 346.665 154.333L349.08 149.553C350.288 150.325 351.73 150.962 353.407 151.465C355.085 151.968 356.762 152.22 358.439 152.22C360.418 152.22 361.844 151.951 362.716 151.415C363.622 150.878 364.075 150.157 364.075 149.251C364.075 148.513 363.773 147.96 363.169 147.591C362.565 147.188 361.777 146.886 360.804 146.685C359.831 146.484 358.741 146.299 357.533 146.131C356.359 145.964 355.169 145.746 353.961 145.477C352.787 145.175 351.713 144.756 350.741 144.219C349.768 143.649 348.979 142.894 348.376 141.955C347.772 141.016 347.47 139.775 347.47 138.232C347.47 136.521 347.956 135.045 348.929 133.804C349.902 132.529 351.261 131.556 353.005 130.885C354.783 130.181 356.879 129.829 359.295 129.829C361.106 129.829 362.934 130.03 364.779 130.432C366.624 130.835 368.15 131.405 369.358 132.143L366.943 136.923C365.668 136.152 364.377 135.632 363.068 135.363C361.794 135.062 360.519 134.911 359.244 134.911C357.332 134.911 355.906 135.196 354.967 135.766C354.062 136.336 353.609 137.057 353.609 137.93C353.609 138.735 353.911 139.339 354.514 139.741C355.118 140.144 355.906 140.462 356.879 140.697C357.852 140.932 358.926 141.133 360.1 141.301C361.307 141.435 362.498 141.653 363.672 141.955C364.846 142.257 365.92 142.676 366.892 143.213C367.899 143.716 368.704 144.437 369.308 145.377C369.912 146.316 370.213 147.54 370.213 149.05C370.213 150.727 369.71 152.186 368.704 153.427C367.731 154.669 366.339 155.641 364.528 156.346C362.716 157.017 360.552 157.352 358.037 157.352Z" fill="#080A3C"/>
<path fill-rule="evenodd" clip-rule="evenodd" d="M131.236 54.6546L131.493 54.2393L135.669 47.4838L138.824 42.3787C139.997 40.4818 142.755 40.4818 143.928 42.3787L147.083 47.4838L151.259 54.2393L151.516 54.6546L156.001 61.9112L166.141 45.5069L158.601 33.3091C150.687 20.505 132.065 20.505 124.151 33.3091L99.9788 72.4158C91.6401 85.9066 101.344 103.313 117.204 103.313H165.548C176.259 103.313 184.163 95.3733 185.596 86.0627H165.548H160.694H151.596H150.65H146.454H132.102H131.156H122.058H117.204C114.854 86.0627 113.417 83.484 114.652 81.4854L117.204 77.3568L121.988 69.6174L122.485 68.8127L131.236 54.6546Z" fill="#FFB700"/>
<path d="M204.685 76.9504L180.514 37.8437C175.97 30.4932 165.28 30.4932 160.736 37.8437L136.565 76.9504C131.777 84.6951 137.348 94.6875 146.453 94.6875H194.797C203.902 94.6875 209.473 84.6951 204.685 76.9504Z" stroke="#B41C1D" stroke-width="17.25"/>
</svg>
